<?xml version="1.0" encoding="utf-8"?>
<!-- Generator: Adobe Illustrator 20.0.0, SVG Export Plug-In . SVG Version: 6.00 Build 0)  -->
<svg version="1.1" id="Layer_1" xmlns="http://www.w3.org/2000/svg" xmlns:xlink="http://www.w3.org/1999/xlink" x="0px" y="0px"
	 viewBox="0 0 100 100" style="enable-background:new 0 0 100 100;" xml:space="preserve">
<g>
	<path d="M74.9,30.1v-8.3H16.8v45.7c0,0,0,8.3,8.3,8.3H77c0,0,6.2-0.1,6.2-8.3V30.1H74.9z M25.1,71.6c-4.1,0-4.1-4.1-4.1-4.1V26
		h49.8v41.5c0,1.9,0.6,3.2,1.4,4.1H25.1z M25.1,71.6"/>
	<rect x="25.1" y="34.3" width="41.5" height="4.1"/>
	<rect x="47.9" y="59.2" width="14.5" height="4.2"/>
	<rect x="47.9" y="50.9" width="18.7" height="4.2"/>
	<rect x="47.9" y="42.6" width="18.7" height="4.2"/>
	<rect x="25.1" y="42.6" width="18.7" height="20.8"/>
</g>
</svg>
